<svg id="visual" viewBox="0 0 900 600" width="900" height="600" xmlns="http://www.w3.org/2000/svg" xmlns:xlink="http://www.w3.org/1999/xlink" version="1.1"><rect x="0" y="0" width="900" height="600" fill="#ffffff"></rect><defs><linearGradient id="grad1_0" x1="33.3%" y1="100%" x2="100%" y2="0%"><stop offset="20%" stop-color="#f8c24a" stop-opacity="1"></stop><stop offset="80%" stop-color="#f8c24a" stop-opacity="1"></stop></linearGradient></defs><defs><linearGradient id="grad1_1" x1="33.3%" y1="100%" x2="100%" y2="0%"><stop offset="20%" stop-color="#f8c24a" stop-opacity="1"></stop><stop offset="80%" stop-color="#ffe0a6" stop-opacity="1"></stop></linearGradient></defs><defs><linearGradient id="grad1_2" x1="33.3%" y1="100%" x2="100%" y2="0%"><stop offset="20%" stop-color="#ffffff" stop-opacity="1"></stop><stop offset="80%" stop-color="#ffe0a6" stop-opacity="1"></stop></linearGradient></defs><defs><linearGradient id="grad2_0" x1="0%" y1="100%" x2="66.7%" y2="0%"><stop offset="20%" stop-color="#f8c24a" stop-opacity="1"></stop><stop offset="80%" stop-color="#f8c24a" stop-opacity="1"></stop></linearGradient></defs><defs><linearGradient id="grad2_1" x1="0%" y1="100%" x2="66.7%" y2="0%"><stop offset="20%" stop-color="#ffe0a6" stop-opacity="1"></stop><stop offset="80%" stop-color="#f8c24a" stop-opacity="1"></stop></linearGradient></defs><defs><linearGradient id="grad2_2" x1="0%" y1="100%" x2="66.7%" y2="0%"><stop offset="20%" stop-color="#ffe0a6" stop-opacity="1"></stop><stop offset="80%" stop-color="#ffffff" stop-opacity="1"></stop></linearGradient></defs><g transform="translate(900, 600)"><path d="M-270.4 0C-268.4 -37 -266.4 -74 -249.8 -103.5C-233.3 -133 -202.3 -155 -174.7 -174.7C-147 -194.3 -122.7 -211.7 -94.1 -227.3C-65.6 -242.8 -32.8 -256.6 0 -270.4L0 0Z" fill="#ffefd2"></path><path d="M-180.3 0C-178.9 -24.7 -177.6 -49.3 -166.6 -69C-155.5 -88.7 -134.9 -103.3 -116.4 -116.4C-98 -129.6 -81.8 -141.1 -62.8 -151.5C-43.7 -161.9 -21.9 -171.1 0 -180.3L0 0Z" fill="#fed17a"></path><path d="M-90.1 0C-89.5 -12.3 -88.8 -24.7 -83.3 -34.5C-77.8 -44.3 -67.4 -51.7 -58.2 -58.2C-49 -64.8 -40.9 -70.6 -31.4 -75.8C-21.9 -80.9 -10.9 -85.5 0 -90.1L0 0Z" fill="#f8c24a"></path></g><g transform="translate(0, 0)"><path d="M270.4 0C268.8 37.5 267.1 74.9 249.8 103.5C232.6 132 199.7 151.7 172.5 172.5C145.4 193.4 123.9 215.4 96.1 231.9C68.2 248.4 34.1 259.4 0 270.4L0 0Z" fill="#ffefd2"></path><path d="M180.3 0C179.2 25 178.1 49.9 166.6 69C155 88 133.1 101.1 115 115C96.9 128.9 82.6 143.6 64 154.6C45.5 165.6 22.7 172.9 0 180.3L0 0Z" fill="#fed17a"></path><path d="M90.1 0C89.6 12.5 89 25 83.3 34.5C77.5 44 66.6 50.6 57.5 57.5C48.5 64.5 41.3 71.8 32 77.3C22.7 82.8 11.4 86.5 0 90.1L0 0Z" fill="#f8c24a"></path></g></svg>